{
  "accessors": [
    {
      "bufferView": 2,
      "componentType": 5126,
      "count": 23389,
      "max": [
        6.134499549865723,
        23.218721389770508,
        18.197683334350586
      ],
      "min": [
        -6.1344990730285645,
        -0.05887651443481445,
        -18.197683334350586
      ],
      "type": "VEC3"
    },
    {
      "bufferView": 2,
      "byteOffset": 280668,
      "componentType": 5126,
      "count": 23389,
      "max": [
        0.9999385476112366,
        0.999967634677887,
        0.9999068379402161
      ],
      "min": [
        -0.9999745488166809,
        -0.9999660849571228,
        -0.9996789693832397
      ],
      "type": "VEC3"
    },
    {
      "bufferView": 3,
      "componentType": 5126,
      "count": 23389,
      "max": [
        0.9999571442604065,
        0.999801516532898,
        0.9999732375144958,
        1.0
      ],
      "min": [
        -0.9999356269836426,
        -0.9999385476112366,
        -0.9999440312385559,
        -1.0
      ],
      "type": "VEC4"
    },
    {
      "bufferView": 1,
      "componentType": 5126,
      "count": 23389,
      "max": [
        0.9917258620262146,
        0.9940625429153442
      ],
      "min": [
        0.004994755610823631,
        0.006206810474395752
      ],
      "type": "VEC2"
    },
    {
      "bufferView": 1,
      "byteOffset": 187112,
      "componentType": 5126,
      "count": 23389,
      "max": [
        0.9917258620262146,
        0.9940625429153442
      ],
      "min": [
        0.004994755610823631,
        0.006206810474395752
      ],
      "type": "VEC2"
    },
    {
      "bufferView": 1,
      "byteOffset": 374224,
      "componentType": 5126,
      "count": 23389,
      "max": [
        0.9917258620262146,
        0.9940625429153442
      ],
      "min": [
        0.004994755610823631,
        0.006206810474395752
      ],
      "type": "VEC2"
    },
    {
      "bufferView": 1,
      "byteOffset": 561336,
      "componentType": 5126,
      "count": 23389,
      "max": [
        0.9917258620262146,
        0.9940625429153442
      ],
      "min": [
        0.004994755610823631,
        0.006206810474395752
      ],
      "type": "VEC2"
    },
    {
      "bufferView": 1,
      "byteOffset": 748448,
      "componentType": 5126,
      "count": 23389,
      "max": [
        0.9917258620262146,
        0.9940625429153442
      ],
      "min": [
        0.004994755610823631,
        0.006206810474395752
      ],
      "type": "VEC2"
    },
    {
      "bufferView": 0,
      "componentType": 5125,
      "count": 128130,
      "type": "SCALAR"
    }
  ],
  "asset": {
    "extras": {
      "author": "Al-Deezel (https://sketchfab.com/Al-dezel)",
      "license": "CC-BY-4.0 (http://creativecommons.org/licenses/by/4.0/)",
      "source": "https://sketchfab.com/3d-models/lion-40dcc4c1488641c7bb8291ca303e978e",
      "title": "Lion"
    },
    "generator": "Sketchfab-15.24.0",
    "version": "2.0"
  },
  "bufferViews": [
    {
      "buffer": 0,
      "byteLength": 512520,
      "name": "floatBufferViews",
      "target": 34963
    },
    {
      "buffer": 0,
      "byteLength": 935560,
      "byteOffset": 512520,
      "byteStride": 8,
      "name": "floatBufferViews",
      "target": 34962
    },
    {
      "buffer": 0,
      "byteLength": 561336,
      "byteOffset": 1448080,
      "byteStride": 12,
      "name": "floatBufferViews",
      "target": 34962
    },
    {
      "buffer": 0,
      "byteLength": 374224,
      "byteOffset": 2009416,
      "byteStride": 16,
      "name": "floatBufferViews",
      "target": 34962
    }
  ],
  "buffers": [
    {
      "byteLength": 2383640,
      "uri": "scene.bin"
    }
  ],
  "extensionsRequired": [
    "KHR_materials_pbrSpecularGlossiness"
  ],
  "extensionsUsed": [
    "KHR_materials_pbrSpecularGlossiness"
  ],
  "images": [
    {
      "uri": "textures/material_0_diffuse.png"
    },
    {
      "uri": "textures/material_0_specularGlossiness.png"
    },
    {
      "uri": "textures/material_0_normal.png"
    },
    {
      "uri": "textures/material_0_occlusion.png"
    }
  ],
  "materials": [
    {
      "doubleSided": true,
      "extensions": {
        "KHR_materials_pbrSpecularGlossiness": {
          "diffuseFactor": [
            1.0,
            1.0,
            1.0,
            1.0
          ],
          "diffuseTexture": {
            "index": 0
          },
          "glossinessFactor": 1.0,
          "specularFactor": [
            1.0,
            1.0,
            1.0
          ],
          "specularGlossinessTexture": {
            "index": 1
          }
        }
      },
      "name": "material_0",
      "normalTexture": {
        "index": 2
      },
      "occlusionTexture": {
        "index": 3
      }
    }
  ],
  "meshes": [
    {
      "name": "Object_0",
      "primitives": [
        {
          "attributes": {
            "NORMAL": 1,
            "POSITION": 0,
            "TANGENT": 2,
            "TEXCOORD_0": 3,
            "TEXCOORD_1": 4,
            "TEXCOORD_2": 5,
            "TEXCOORD_3": 6,
            "TEXCOORD_4": 7
          },
          "indices": 8,
          "material": 0,
          "mode": 4
        }
      ]
    }
  ],
  "nodes": [
    {
      "children": [
        1
      ],
      "matrix": [
        1.0,
        0.0,
        0.0,
        0.0,
        0.0,
        2.220446049250313e-16,
        -1.0,
        0.0,
        0.0,
        1.0,
        2.220446049250313e-16,
        0.0,
        0.0,
        0.0,
        0.0,
        1.0
      ],
      "name": "Sketchfab_model"
    },
    {
      "children": [
        2
      ],
      "name": "root"
    },
    {
      "children": [
        3
      ],
      "matrix": [
        1.0,
        0.0,
        0.0,
        0.0,
        0.0,
        2.220446049250313e-16,
        1.0,
        0.0,
        0.0,
        -1.0,
        2.220446049250313e-16,
        0.0,
        0.0,
        0.0,
        0.0,
        1.0
      ],
      "name": "GLTF_SceneRootNode"
    },
    {
      "children": [
        4
      ],
      "matrix": [
        0.009999999776482582,
        0.0,
        0.0,
        0.0,
        0.0,
        0.009999999776482582,
        0.0,
        0.0,
        0.0,
        0.0,
        0.009999999776482582,
        0.0,
        0.0,
        0.0,
        0.0,
        1.0
      ],
      "name": "RootNode.0_0"
    },
    {
      "children": [
        5
      ],
      "name": "lion.1_1"
    },
    {
      "mesh": 0,
      "name": "Object_5"
    }
  ],
  "samplers": [
    {
      "magFilter": 9729,
      "minFilter": 9987,
      "wrapS": 10497,
      "wrapT": 10497
    }
  ],
  "scene": 0,
  "scenes": [
    {
      "name": "Sketchfab_Scene",
      "nodes": [
        0
      ]
    }
  ],
  "textures": [
    {
      "sampler": 0,
      "source": 0
    },
    {
      "sampler": 0,
      "source": 1
    },
    {
      "sampler": 0,
      "source": 2
    },
    {
      "sampler": 0,
      "source": 3
    }
  ]
}
